<?xml version="1.0" encoding="utf-8"?>
<!-- Generator: Adobe Illustrator 18.0.0, SVG Export Plug-In . SVG Version: 6.00 Build 0)  -->
<!DOCTYPE svg PUBLIC "-//W3C//DTD SVG 1.1//EN" "http://www.w3.org/Graphics/SVG/1.1/DTD/svg11.dtd">
<svg version="1.1" id="Layer_1" xmlns="http://www.w3.org/2000/svg" xmlns:xlink="http://www.w3.org/1999/xlink" x="0px" y="0px"
	 viewBox="0 0 1000 1000" enable-background="new 0 0 1000 1000" xml:space="preserve">
<g>
	<g>
		<g>
			<path fill="#4EDDA6" d="M284.3,746.3c-1.5,0-1.5,2.3,0,2.3C285.8,748.6,285.8,746.3,284.3,746.3z"/>
			<path fill="#4EDDA6" d="M142.9,303.6c-8.4-24.7-20.8-47.6-31.1-71.5c-0.6-1.4-2.6-0.2-2,1.2c10.2,23.7,22.6,46.5,30.9,71
				C141.2,305.6,143.4,305,142.9,303.6z"/>
			<path fill="#4EDDA6" d="M492.3,726.4c-1.5,0-1.5,2.3,0,2.3C493.8,728.7,493.8,726.4,492.3,726.4z"/>
			<polygon fill="#3F3956" points="419.2,719.3 419.2,736.6 440.1,729.7 478.5,716.2 499.2,713.3 499.2,687.7 459.4,716.2 
				436.9,724.8 			"/>
			<path d="M413.3,422.5c-0.2-1.5-2.4-0.8-2.2,0.6c0,0.1,0,0.2,0,0.3c-5,4.9-9.4,10.9-15.3,14.8c-0.1-5.4-3.3-11.6-5.6-16.3
				c-0.1-0.3-0.3-0.4-0.5-0.5c0.1-0.6-0.3-1.3-1.1-1.2c-6.9,0.6-13.7,4-19.8,7.4c1.9-8.1-0.7-16.6,1.6-24.7c0.4-1.4-1.8-2-2.2-0.6
				c-2.5,8.7,0.7,17.9-2.2,26.5c-0.1-0.1-0.3-0.1-0.5-0.1c-1.5,0-1.5,2.3,0,2.3c0.3,0,0.6-0.1,0.7-0.3c0.3,0.3,0.8,0.4,1.3,0.1
				c6.2-3.5,13.2-7.6,20.4-8.4c0,0.2,0,0.3,0.1,0.5c2.2,4.5,5.4,10.6,5.3,15.7c-0.4,0.3-0.7,0.9-0.5,1.4c-0.4,0.8,0.6,2,1.6,1.5
				c2.8,2.4,4.1,5.9,5.9,9.1c2.1,3.8,5.4,6.9,7.1,10.9c0.6,1.3,2.8,0.8,2.2-0.6c2.5-1.7,1.6-11.3,1.6-13.3
				C411.6,439.5,414.6,430.7,413.3,422.5z M409.3,441.5c-0.1,1,0.2,15.8-0.5,17.4c-1.8-3.3-4.2-6.3-6.3-9.4
				c-2.1-3.1-3.3-6.5-5.8-9.1c5.7-3.7,9.9-9.1,14.6-13.9C411.3,431.5,409.7,436.5,409.3,441.5z"/>
			<path fill="#528466" d="M411.3,422.1c0,0,3.2-4,8.7-1.4l-11.5,39.5L411.3,422.1z"/>
			<polygon fill="#DED9B4" points="420,420.9 424,457.1 408.5,460.2 			"/>
			<polygon fill="#FEFFE6" points="411.3,422.1 394.7,441.7 408.5,460.2 			"/>
			<polygon fill="#FEFFCE" points="394.7,441.7 389,421.7 411.3,422.1 			"/>
			<polygon fill="#E8ECB1" points="389,421.7 365.6,431.2 394.7,441.7 			"/>
			<polygon fill="#FEFFE6" points="365.6,431.2 368.1,402.9 389,421.7 			"/>
			<polygon fill="#FEFFCE" points="368.1,402.9 356.4,407.9 365.6,431.2 			"/>
			<polygon fill="#D1D3D4" points="420,420.9 444.1,420.9 425.9,387.6 			"/>
			<polygon fill="#DED9B4" points="420,420.9 431.7,448.2 444.1,420.9 			"/>
			<polygon fill="#FEFFE6" points="414.8,567.1 403.6,602.1 444.8,616.3 			"/>
			<polygon fill="#B7BCCD" points="466.6,587.4 499.2,579.4 499.2,594.5 			"/>
			<polygon fill="#C8E3CE" points="421.7,585.5 414.8,567.1 429.4,567.1 			"/>
			<polygon fill="#D1D3D4" points="429.4,567.1 446,592.5 447.5,605.2 421.7,585.5 			"/>
			<polygon fill="#B3DBCD" points="429.4,567.1 466.6,587.4 446,592.5 			"/>
			<g>
				<path fill="#3F3956" d="M446,592.5l20.6-5.1l32.6,7v75.7l-15.5-30.8l-17.6-19.7l-21.3-3.3c0,0-20.7-19.9-23.2-30.8l6.1-4
					c0,0,15.7,21.1,19.7,23.8L446,592.5z"/>
				<path fill="#C170C1" d="M446,592.5c0,0,43.9,1.9,38.2,47.6l15.1,8.6v-54.3l-32.6-7L446,592.5z"/>
			</g>
			<polygon fill="#FEFFE6" points="459.4,716.2 440.6,655.8 482.9,699.4 			"/>
			<polygon fill="#E8E9EB" points="440.6,655.8 499.2,687.7 482.9,699.4 			"/>
			<polygon fill="#E7DAFF" points="440.6,655.8 499.2,670.1 499.2,687.7 			"/>
			<polygon fill="#E8E9EB" points="440.6,655.8 484.1,640.1 499.2,670.1 			"/>
			<polygon fill="#FEFFCE" points="440.6,655.8 466.1,619.6 484.1,640.1 			"/>
			<polygon fill="#FEFFCE" points="440.6,655.8 436.9,724.8 459.4,716.2 			"/>
			<polygon fill="#E8ECB1" points="440.6,655.8 444.8,616.3 466.1,619.6 			"/>
			<polygon fill="#E8ECB1" points="440.6,655.8 436.9,724.8 399.3,715 			"/>
			<polygon fill="#DED9B4" points="440.6,655.8 403.6,602.1 444.8,616.3 			"/>
			<polygon fill="#DED9B4" points="440.6,655.8 385.7,687.7 399.3,715 			"/>
			<polygon fill="#E8ECB1" points="440.6,655.8 375.4,655.1 385.7,687.7 			"/>
			<polygon fill="#E8ECB1" points="440.6,655.8 377.4,616.3 403.6,602.1 			"/>
			<polygon fill="#FEFFCE" points="440.6,655.8 377.4,616.3 375.4,655.1 			"/>
			<polygon fill="#FEFFE6" points="440.1,729.7 405,784.9 435.8,775.5 			"/>
			<polygon fill="#FEFFE6" points="435.8,775.5 478.5,716.2 460.2,791.2 			"/>
			<polygon fill="#FEFFCE" points="478.5,716.2 440.1,729.7 435.8,775.5 			"/>
			<polygon fill="#E8ECB1" points="440.1,729.7 419.2,736.6 405,784.9 			"/>
			<polygon fill="#E8ECB1" points="478.5,716.2 484.1,796.3 460.2,791.2 			"/>
			<polygon fill="#E8ECB1" points="435.8,775.5 438.6,813.9 460.2,791.2 			"/>
			<polygon fill="#DED9B4" points="484.1,796.3 499.2,713.3 499.2,817.5 			"/>
			<polygon fill="#DED9B4" points="460.2,791.2 468.7,822.4 484.1,796.3 			"/>
			<polygon fill="#D1D3D4" points="484.1,796.3 478.5,716.2 499.2,713.3 			"/>
			<polygon fill="#B7DFE2" points="425.9,387.6 424,353.5 470.6,330.4 			"/>
			<polygon fill="#B7DFE2" points="383.5,574 377.4,539.5 355.7,556.4 			"/>
			<polygon fill="#B3DBCD" points="355.7,556.4 377.4,616.3 383.5,574 			"/>
			<polygon fill="#B3DBCD" points="470.6,330.4 434.9,303.2 444.9,343.1 			"/>
			<polygon fill="#B3DBCD" points="345.7,361.3 321.5,421.9 343.9,412.9 			"/>
			<polygon fill="#B3DBCD" points="345.7,361.3 381.3,318.1 369.1,357.6 			"/>
			<polygon fill="#B3DBCD" points="355.6,396.4 365.6,378.8 380.1,385.8 			"/>
			<polygon fill="#C8E3CE" points="365.6,378.8 396.4,368.6 380.1,385.8 			"/>
			<polygon fill="#A7C1B5" points="396.4,368.6 408.4,385.8 380.1,385.8 			"/>
			<polygon fill="#B3DBCD" points="396.4,368.6 425.9,387.6 408.4,385.8 			"/>
			<polygon fill="#94C7D3" points="425.9,387.6 422.4,407.3 408.4,385.8 			"/>
			<g>
				<path fill="#3F3956" d="M356.4,407.9l-0.9-11.5l29.3-12.6c0,0,25.3-12.5,37.5,23.6l-2.4,13.6c0,0-3.7-1.7-8.7,1.2
					c-4.9,3-24.3,7.8-43.2-19.2L356.4,407.9z"/>
				<g>
					<path fill="#8E688D" d="M397.8,394.8c8,0,14.8,5.4,16.9,12.7c0.5-1.6,0.7-3.3,0.7-5c0-9.8-7.9-17.7-17.7-17.7
						c-9.8,0-17.7,7.9-17.7,17.7c0,1.7,0.3,3.4,0.7,5C383,400.1,389.8,394.8,397.8,394.8z"/>
					<path fill="#AE99C9" d="M397.8,420.1c8,0,14.8-5.4,16.9-12.7c-2.2-7.3-8.9-12.7-16.9-12.7c-8,0-14.8,5.4-16.9,12.7
						C383,414.8,389.8,420.1,397.8,420.1z"/>
				</g>
				<circle fill="#633963" cx="397.8" cy="399.4" r="4.7"/>
			</g>
			<polygon fill="#C8E3CE" points="381.3,318.1 434.9,303.2 439.6,322 			"/>
			<polygon fill="#C8E3CE" points="345.7,361.3 365.6,378.8 369.1,357.6 			"/>
			<polygon fill="#DED9B4" points="345.7,361.3 355.6,396.4 365.6,378.8 			"/>
			<polygon fill="#A7C1B5" points="345.7,361.3 355.6,396.4 356.4,407.9 343.9,412.9 			"/>
			<polygon fill="#A7C1B5" points="381.3,318.1 402.6,339.7 369.1,357.6 			"/>
			<polygon fill="#A7C1B5" points="402.6,339.7 439.6,322 444.9,343.1 			"/>
			<polygon fill="#94C7D3" points="402.6,339.7 424,353.5 444.9,343.1 			"/>
			<polygon fill="#94C7D3" points="402.6,339.7 381.3,318.1 439.6,322 			"/>
			<polygon fill="#7FB29E" points="369.1,357.6 396.4,368.6 365.6,378.8 			"/>
			<polygon fill="#7FB29E" points="396.4,368.6 424,353.5 425.9,387.6 			"/>
			<polygon fill="#4EDDA6" points="396.4,368.6 402.6,339.7 424,353.5 			"/>
			<polygon fill="#99CAFF" points="396.4,368.6 402.6,339.7 369.1,357.6 			"/>
			<polygon fill="#A1AFB4" points="394.7,441.7 359,470 408.5,460.2 			"/>
			<polygon fill="#B7A5BF" points="424,457.1 387.2,503.2 359,470 			"/>
			<polygon fill="#8A979B" points="359,470 377.4,539.5 387.2,503.2 			"/>
			<polygon fill="#B7BCCD" points="424,457.1 383.5,574 377.4,539.5 			"/>
			<polygon fill="#A1AFB4" points="424,457.1 377.4,539.5 387.2,503.2 			"/>
			<polygon fill="#8A979B" points="321.5,421.9 343.9,495.1 326.1,524.9 			"/>
			<polygon fill="#538196" points="365.6,431.2 359,470 394.7,441.7 			"/>
			<polygon fill="#6E877F" points="356.4,407.9 365.6,431.2 321.5,421.9 			"/>
			<polygon fill="#72A1B2" points="365.6,431.2 359,470 321.5,421.9 			"/>
			<polygon fill="#72A1B2" points="359,470 326.1,524.9 377.4,539.5 			"/>
			<polygon fill="#94C7D3" points="377.4,539.5 355.7,556.4 326.1,524.9 			"/>
			<polygon fill="#A1AFB4" points="326.1,524.9 377.4,616.3 355.7,556.4 			"/>
			<polygon fill="#A1AFB4" points="321.5,421.9 359,470 343.9,495.1 			"/>
			<polygon fill="#528466" points="470.6,330.4 499.2,303.8 499.2,334.2 			"/>
			<polygon fill="#6E877F" points="470.6,330.4 499.2,368.6 499.2,334.2 			"/>
			<polygon fill="#429686" points="470.6,330.4 459.1,389.4 499.2,368.6 			"/>
			<polygon fill="#429686" points="499.2,303.8 470.6,244.9 499.2,272.5 			"/>
			<polygon fill="#6BAA85" points="470.6,244.9 470.6,330.4 499.2,303.8 			"/>
			<polygon fill="#6BAA85" points="470.6,244.9 479.7,202 499.2,272.5 			"/>
			<polygon fill="#6BAA85" points="459.1,389.4 425.9,387.6 444.1,420.9 			"/>
			<polygon fill="#6BAA85" points="381.3,318.1 337.6,332.3 345.7,361.3 			"/>
			<polygon fill="#6BAA85" points="345.7,361.3 303.5,395.6 321.5,421.9 			"/>
			<polygon fill="#528466" points="499.2,368.6 499.2,426.1 480.9,378.1 			"/>
			<polygon fill="#7FB29E" points="470.6,244.9 434.9,303.2 470.6,330.4 			"/>
			<polygon fill="#7FB29E" points="479.7,202 499.2,218.5 499.2,272.5 			"/>
			<polygon fill="#7FB29E" points="381.3,318.1 368,260.1 337.6,332.3 			"/>
			<polygon fill="#4EDDA6" points="434.9,303.2 428.9,263.2 368,260.1 			"/>
			<polygon fill="#A7C1B5" points="434.9,303.2 428.9,263.2 445.9,234.2 			"/>
			<polygon fill="#A7C1B5" points="368,260.1 434.9,303.2 381.3,318.1 			"/>
			<polygon fill="#A7C1B5" points="425.9,387.6 459.1,389.4 470.6,330.4 			"/>
			<polygon fill="#7FB29E" points="459.1,389.4 499.2,426.1 480.9,378.1 			"/>
			<polygon fill="#7FB29E" points="459.1,389.4 456.1,423.4 444.1,420.9 			"/>
			<polygon fill="#7FB29E" points="456.1,423.4 445.1,479.3 431.7,448.2 			"/>
			<polygon fill="#6BAA85" points="420,420.9 445.1,479.3 424,457.1 			"/>
			<polygon fill="#72A1B2" points="424,457.1 418.3,516.4 445.1,479.3 			"/>
			<polygon fill="#72A1B2" points="456.1,423.4 431.7,448.2 444.1,420.9 			"/>
			<polygon fill="#4EDDA6" points="434.9,303.2 445.9,234.2 470.6,244.9 			"/>
			<polygon fill="#538196" points="499.2,579.4 459.4,559 499.2,543.7 			"/>
			<polygon fill="#60668C" points="499.2,543.7 473.6,514.4 499.2,506.6 			"/>
			<polygon fill="#72A1B2" points="473.6,514.4 459.4,559 499.2,543.7 			"/>
			<polygon fill="#72A1B2" points="459.4,559 466.6,587.4 499.2,579.4 			"/>
			<polygon fill="#72A1B2" points="473.6,514.4 499.2,470 499.2,506.6 			"/>
			<polygon fill="#A1AFB4" points="424,457.1 418.3,516.4 383.5,574 			"/>
			<polygon fill="#94C7D3" points="418.3,516.4 414.8,567.1 383.5,574 			"/>
			<polygon fill="#55CFF9" points="414.8,567.1 403.6,602.1 383.5,574 			"/>
			<polygon fill="#55CFF9" points="414.8,567.1 445.1,479.3 418.3,516.4 			"/>
			<polygon fill="#55CFF9" points="499.2,470 463.3,465.2 473.6,514.4 			"/>
			<polygon fill="#55CFF9" points="459.4,559 466.6,587.4 429.4,567.1 			"/>
			<polygon fill="#99CAFF" points="473.6,514.4 445.1,479.3 463.3,465.2 			"/>
			<polygon fill="#99CAFF" points="473.6,514.4 459.4,559 429.4,567.1 			"/>
			<polygon fill="#A7C1B5" points="463.3,465.2 456.1,423.4 445.1,479.3 			"/>
			<polygon fill="#94C7D3" points="473.6,514.4 414.8,567.1 445.1,479.3 			"/>
			<polygon fill="#94C7D3" points="463.3,465.2 499.2,426.1 499.2,470 			"/>
			<polygon fill="#4EDDA6" points="499.2,426.1 456.1,423.4 463.3,465.2 			"/>
			<polygon fill="#A1AFB4" points="499.2,426.1 459.1,389.4 456.1,423.4 			"/>
			<polygon fill="#B7BCCD" points="429.4,567.1 414.8,567.1 473.6,514.4 			"/>
			<polygon fill="#633963" points="479.7,202 499.2,143 499.2,218.5 			"/>
			<polygon fill="#633963" points="499.2,143 451.4,108.9 499.3,82.4 			"/>
			<polygon fill="#61235A" points="451.4,108.9 451.5,108.5 476.4,10.2 499.3,82.4 			"/>
			<polygon fill="#61235A" points="479.7,202 499.2,143 451.4,108.9 			"/>
			<polygon fill="#61235A" points="470.6,244.9 447,174.9 445.9,234.2 			"/>
			<polygon fill="#61235A" points="445.9,234.2 389,199.3 428.9,263.2 			"/>
			<polygon fill="#62347F" points="479.7,202 447,174.9 451.4,108.9 			"/>
			<polygon fill="#62347F" points="428.9,263.2 327.4,195.8 368,260.1 			"/>
			<polygon fill="#65477A" points="368,260.1 276.9,243.9 231.8,361.3 			"/>
			<polygon fill="#62347F" points="445.9,234.2 447,174.9 394,117.2 			"/>
			<polygon fill="#8E4989" points="428.9,263.2 327.4,195.8 389,199.3 			"/>
			<polygon fill="#8E4989" points="470.6,244.9 479.7,202 447,174.9 			"/>
			<polygon fill="#8E4989" points="394,117.2 389,199.3 445.9,234.2 			"/>
			<polygon fill="#8E4989" points="368,260.1 259.2,185 211.2,232.3 			"/>
			<polygon fill="#8E4989" points="337.6,332.3 289.6,318.1 345.7,361.3 			"/>
			<polygon fill="#8E4989" points="345.7,361.3 303.5,395.6 202.8,422.2 			"/>
			<polygon fill="#8E4989" points="321.5,421.9 202.8,422.2 275.7,483 			"/>
			<polygon fill="#797391" points="289.6,318.1 292.7,383.9 202.8,422.2 			"/>
			<polygon fill="#797391" points="337.6,332.3 368,260.1 289.6,318.1 			"/>
			<polygon fill="#797391" points="321.5,421.9 326.1,524.9 275.7,483 			"/>
			<polygon fill="#575756" points="326.1,524.9 375.4,655.1 377.4,616.3 			"/>
			<polygon fill="#797391" points="326.1,524.9 224.4,622.8 346.4,578.4 			"/>
			<polygon fill="#6E6491" points="289.6,318.1 345.7,361.3 292.7,383.9 			"/>
			<polygon fill="#6E6491" points="303.5,395.6 321.5,421.9 202.8,422.2 			"/>
			<polygon fill="#934AD3" points="389,199.3 328,136.1 327.4,195.8 			"/>
			<polygon fill="#6E6491" points="259.2,185 212.3,95.1 327.4,195.8 			"/>
			<polygon fill="#8E688D" points="394,117.2 328,136.1 297.3,22.5 			"/>
			<polygon fill="#877993" points="451.4,108.9 389.7,8.9 395.9,71.9 			"/>
			<polygon fill="#8E688D" points="408.4,39.1 469.1,39.1 451.4,108.9 			"/>
			<polygon fill="#AA9FE2" points="229.5,127.9 162.4,180 132.5,136 			"/>
			<polygon fill="#877993" points="162.4,180 145.6,305.4 211.2,232.3 			"/>
			<polygon fill="#877993" points="259.2,185 229.5,127.9 162.4,180 			"/>
			<polygon fill="#C8E3CE" points="141.4,429.1 141.3,617.7 98.2,569.5 			"/>
			<polygon fill="#E8ECB1" points="141.4,429.1 194.1,550.6 141.3,536.7 			"/>
			<polygon fill="#C170C1" points="141.4,429.1 326.1,524.9 202.8,422.2 			"/>
			<polygon fill="#8D59B2" points="276.9,243.9 186.7,349.6 231.8,361.3 			"/>
			<polygon fill="#AA9FE2" points="141.4,429.1 289.6,318.1 202.8,422.2 			"/>
			<polygon fill="#D8CAF9" points="141.4,429.1 185.5,452 164.1,481.5 			"/>
			<polygon fill="#C0B6E0" points="141.4,429.1 186.7,349.6 231.8,361.3 			"/>
			<polygon fill="#C0B6E0" points="164.1,481.5 228.4,474.3 185.5,452 			"/>
			<polygon fill="#B3DBCD" points="228.4,474.3 194.1,550.6 164.1,481.5 			"/>
			<polygon fill="#AA9FE2" points="228.4,474.3 326.1,524.9 194.1,550.6 			"/>
			<polygon fill="#A397B2" points="326.1,524.9 224.4,622.8 194.1,550.6 			"/>
			<polygon fill="#AA9FE2" points="145.6,305.4 186.7,349.6 141.4,429.1 			"/>
			<polygon fill="#6E6491" points="145.6,305.4 276.9,243.9 211.2,232.3 			"/>
			<polygon fill="#AA89CE" points="145.6,305.4 276.9,243.9 186.7,349.6 			"/>
			<polygon fill="#AA89CE" points="145.6,305.4 86.6,435.8 141.4,429.1 			"/>
			<polygon fill="#AA89CE" points="162.4,180 101,222.6 155.2,234.2 			"/>
			<polygon fill="#AA9FE2" points="101,222.6 145.6,305.4 155.2,234.2 			"/>
			<polygon fill="#AA89CE" points="212.3,95.1 328,136.1 327.4,195.8 			"/>
			<polygon fill="#AA89CE" points="395.9,71.9 447,174.9 451.4,108.9 			"/>
			<polygon fill="#934AD3" points="395.9,71.9 394,117.2 447,174.9 			"/>
			<polygon fill="#934AD3" points="259.2,185 211.2,232.3 162.4,180 			"/>
			<polygon fill="#806AAC" points="328,136.1 260.1,63.2 309.6,68.2 			"/>
			<polygon fill="#877993" points="395.9,71.9 297.3,22.5 394,117.2 			"/>
			<polygon fill="#877993" points="389,199.3 328,136.1 394,117.2 			"/>
			<polygon fill="#877993" points="327.4,195.8 368,260.1 259.2,185 			"/>
			<polygon fill="#E8ECB1" points="194.1,550.6 141.3,617.7 182.9,673 			"/>
			<polygon fill="#E8ECB1" points="137,789.3 228,727 182.9,673 			"/>
			<polygon fill="#DED9B4" points="194.1,550.6 224.4,622.8 182.9,673 			"/>
			<polygon fill="#DED9B4" points="182.9,673 141.3,617.7 109.7,727.7 			"/>
			<polygon fill="#DED9B4" points="194.1,550.6 141.3,536.7 141.3,617.7 			"/>
			<polygon fill="#C8E3CE" points="224.4,622.8 228,727 182.9,673 			"/>
			<polygon fill="#DED9B4" points="224.4,622.8 254,689 228,727 			"/>
			<polygon fill="#CFCAE5" points="224.4,622.8 346.4,578.4 254,689 			"/>
			<polygon fill="#CFCAE5" points="98.2,569.5 76.3,698.8 141.3,617.7 			"/>
			<polygon fill="#CFCAE5" points="98.2,569.5 66.1,575.7 118.1,504.8 			"/>
			<polygon fill="#C0B6E0" points="141.4,429.1 80.6,502.7 118.1,504.8 			"/>
			<polygon fill="#677C6E" points="346.4,578.4 375.4,655.1 254,689 			"/>
			<polygon fill="#436A7B" points="375.4,655.1 292.2,744.1 254,689 			"/>
			<polygon fill="#436A7B" points="385.7,687.7 379.9,768.1 399.3,715 			"/>
			<path fill="#436A7B" d="M399.3,715"/>
			<polygon fill="#2B4854" points="379.9,768.1 419.2,736.6 419.2,720.2 399.3,715 			"/>
			<polygon fill="#2B4854" points="375.4,655.1 385.7,687.7 292.2,744.1 			"/>
			<polygon fill="#727271" points="438.6,813.9 446.5,868.2 468.7,822.4 			"/>
			<polygon fill="#575756" points="468.7,822.4 460.2,791.2 438.6,813.9 			"/>
			<polygon fill="#575756" points="438.6,813.9 446.5,868.2 371.7,855.2 			"/>
			<polygon fill="#575756" points="379.9,768.1 385.7,687.7 292.2,744.1 			"/>
			<polygon fill="#575756" points="254,689 292.2,744.1 228,727 			"/>
			<polygon fill="#727271" points="228,727 268.1,779.9 292.2,744.1 			"/>
			<polygon fill="#2B4854" points="371.7,855.2 345.2,969.5 446.5,868.2 			"/>
			<polygon fill="#436A7B" points="446.5,868.2 499.2,972.7 499.2,867.3 			"/>
			<polygon fill="#2B4854" points="446.5,868.2 446.5,990.7 482.3,939.2 			"/>
			<polygon fill="#60668C" points="292.2,744.1 342.4,812.5 379.9,768.1 			"/>
			<polygon fill="#60668C" points="468.7,822.4 499.2,817.5 484.1,796.3 			"/>
			<polygon fill="#60668C" points="468.7,822.4 499.2,867.3 446.5,868.2 			"/>
			<polygon fill="#60668C" points="446.5,868.2 400.9,913.8 446.5,990.7 			"/>
			<polygon fill="#528466" points="468.7,822.4 499.2,817.5 499.2,867.3 			"/>
			<polygon fill="#528466" points="435.8,775.5 438.6,813.9 405,784.9 			"/>
			<polygon fill="#528466" points="419.2,736.6 405,784.9 379.9,768.1 			"/>
			<polygon fill="#528466" points="292.2,744.1 290.1,872 342.4,812.5 			"/>
			<polygon fill="#6E877F" points="379.9,768.1 371.7,855.2 405,784.9 			"/>
			<polygon fill="#6E877F" points="228,727 190.9,827.6 268.1,779.9 			"/>
			<polygon fill="#6BAA85" points="405,784.9 438.6,813.9 371.7,855.2 			"/>
			<polygon fill="#6BAA85" points="379.9,768.1 371.7,855.2 342.4,812.5 			"/>
			<polygon fill="#6BAA85" points="292.2,744.1 242.1,914.5 290.1,872 			"/>
			<polygon fill="#6BAA85" points="290.1,872 345.2,969.5 371.7,855.2 			"/>
			<polygon fill="#8FC1AD" points="292.2,744.1 226.9,841 242.1,914.5 			"/>
			<polygon fill="#8FC1AD" points="342.4,812.5 371.7,855.2 290.1,872 			"/>
			<polygon fill="#8FC1AD" points="228,727 184.7,756.6 190.9,827.6 			"/>
			<polygon fill="#8FC1AD" points="290.1,872 307.4,973 329.2,941.2 			"/>
			<polygon fill="#72A1B2" points="403.6,602.1 383.5,574 377.4,616.3 			"/>
		</g>
		<g>
			<path fill="#4EDDA6" d="M714.2,746.3c1.5,0,1.5,2.3,0,2.3C712.7,748.6,712.7,746.3,714.2,746.3z"/>
			<path fill="#4EDDA6" d="M855.6,303.6c8.4-24.7,20.8-47.6,31.1-71.5c0.6-1.4,2.6-0.2,2,1.2c-10.2,23.7-22.6,46.5-30.9,71
				C857.3,305.6,855.1,305,855.6,303.6z"/>
			<path fill="#4EDDA6" d="M506.2,726.4c1.5,0,1.5,2.3,0,2.3C504.7,728.7,504.7,726.4,506.2,726.4z"/>
			<polygon fill="#3F3956" points="579.4,719.3 579.4,736.6 558.4,729.7 520,716.2 499.3,713.3 499.3,687.7 539.1,716.2 
				561.6,724.8 			"/>
			<path d="M587.1,447.7c0,2-0.9,11.6,1.6,13.3c-0.5,1.3,1.7,1.9,2.2,0.6c1.7-4.1,4.9-7.1,7.1-10.9c1.8-3.2,3.1-6.7,5.9-9.1
				c1.1,0.6,2-0.6,1.6-1.5c0.2-0.5-0.1-1.1-0.5-1.4c-0.1-5.1,3.1-11.2,5.3-15.7c0.1-0.2,0.1-0.4,0.1-0.5c7.2,0.8,14.2,4.9,20.4,8.4
				c0.5,0.3,1,0.2,1.3-0.1c0.2,0.2,0.4,0.3,0.7,0.3c1.5,0,1.5-2.3,0-2.3c-0.2,0-0.3,0-0.5,0.1c-2.8-8.6,0.4-17.8-2.2-26.5
				c-0.4-1.4-2.6-0.8-2.2,0.6c2.4,8.1-0.3,16.5,1.6,24.7c-6.1-3.4-12.8-6.8-19.8-7.4c-0.8-0.1-1.2,0.6-1.1,1.2
				c-0.2,0.1-0.4,0.2-0.5,0.5c-2.3,4.7-5.5,10.8-5.6,16.3c-5.9-3.9-10.3-9.9-15.3-14.8c0-0.1,0-0.2,0-0.3c0.2-1.5-2-2.1-2.2-0.6
				C584,430.7,587,439.5,587.1,447.7z M587.2,426.5c4.7,4.8,8.9,10.3,14.6,13.9c-2.6,2.6-3.7,6-5.8,9.1c-2.1,3.1-4.5,6.1-6.3,9.4
				c-0.7-1.6-0.4-16.4-0.5-17.4C588.8,436.5,587.3,431.5,587.2,426.5z"/>
			<path fill="#528466" d="M587.2,422.1c0,0-3.2-4-8.7-1.4l11.5,39.5L587.2,422.1z"/>
			<polygon fill="#DED9B4" points="578.6,420.9 574.6,457.1 590.1,460.2 			"/>
			<polygon fill="#FEFFE6" points="587.2,422.1 603.9,441.7 590.1,460.2 			"/>
			<polygon fill="#FEFFCE" points="603.9,441.7 609.6,421.7 587.2,422.1 			"/>
			<polygon fill="#E8ECB1" points="609.6,421.7 632.9,431.2 603.9,441.7 			"/>
			<polygon fill="#FEFFE6" points="632.9,431.2 630.5,402.9 609.6,421.7 			"/>
			<polygon fill="#FEFFCE" points="630.5,402.9 642.1,407.9 632.9,431.2 			"/>
			<polygon fill="#D1D3D4" points="578.6,420.9 554.5,420.9 572.7,387.6 			"/>
			<polygon fill="#DED9B4" points="578.6,420.9 566.8,448.2 554.5,420.9 			"/>
			<polygon fill="#FEFFE6" points="583.8,567.1 595,602.1 553.7,616.3 			"/>
			<polygon fill="#B7BCCD" points="531.9,587.4 499.3,579.4 499.3,594.5 			"/>
			<polygon fill="#C8E3CE" points="576.9,585.5 583.8,567.1 569.1,567.1 			"/>
			<polygon fill="#D1D3D4" points="569.1,567.1 552.6,592.5 551,605.2 576.9,585.5 			"/>
			<polygon fill="#B3DBCD" points="569.1,567.1 531.9,587.4 552.6,592.5 			"/>
			<g>
				<path fill="#3F3956" d="M552.6,592.5l-20.6-5.1l-32.6,7v75.7l15.5-30.8l17.6-19.7l21.3-3.3c0,0,20.7-19.9,23.2-30.8l-6.1-4
					c0,0-15.7,21.1-19.7,23.8L552.6,592.5z"/>
				<path fill="#C170C1" d="M552.6,592.5c0,0-43.9,1.9-38.2,47.6l-15.1,8.6v-54.3l32.6-7L552.6,592.5z"/>
			</g>
			<polygon fill="#FEFFE6" points="539.1,716.2 557.9,655.8 515.6,699.4 			"/>
			<polygon fill="#E8E9EB" points="557.9,655.8 499.3,687.7 515.6,699.4 			"/>
			<polygon fill="#E7DAFF" points="557.9,655.8 499.3,670.1 499.3,687.7 			"/>
			<polygon fill="#E8E9EB" points="557.9,655.8 514.4,640.1 499.3,670.1 			"/>
			<polygon fill="#FEFFCE" points="557.9,655.8 532.4,619.6 514.4,640.1 			"/>
			<polygon fill="#FEFFCE" points="557.9,655.8 561.6,724.8 539.1,716.2 			"/>
			<polygon fill="#E8ECB1" points="557.9,655.8 553.7,616.3 532.4,619.6 			"/>
			<polygon fill="#E8ECB1" points="557.9,655.8 561.6,724.8 599.2,715 			"/>
			<polygon fill="#DED9B4" points="557.9,655.8 595,602.1 553.7,616.3 			"/>
			<polygon fill="#DED9B4" points="557.9,655.8 612.8,687.7 599.2,715 			"/>
			<polygon fill="#E8ECB1" points="557.9,655.8 623.1,655.1 612.8,687.7 			"/>
			<polygon fill="#E8ECB1" points="557.9,655.8 621.1,616.3 595,602.1 			"/>
			<polygon fill="#FEFFCE" points="557.9,655.8 621.1,616.3 623.1,655.1 			"/>
			<polygon fill="#FEFFE6" points="558.4,729.7 593.5,784.9 562.7,775.5 			"/>
			<polygon fill="#FEFFE6" points="562.7,775.5 520,716.2 538.3,791.2 			"/>
			<polygon fill="#FEFFCE" points="520,716.2 558.4,729.7 562.7,775.5 			"/>
			<polygon fill="#E8ECB1" points="558.4,729.7 579.4,736.6 593.5,784.9 			"/>
			<polygon fill="#E8ECB1" points="520,716.2 514.4,796.3 538.3,791.2 			"/>
			<polygon fill="#E8ECB1" points="562.7,775.5 559.9,813.9 538.3,791.2 			"/>
			<polygon fill="#DED9B4" points="514.4,796.3 499.3,713.3 499.3,817.5 			"/>
			<polygon fill="#DED9B4" points="538.3,791.2 529.9,822.4 514.4,796.3 			"/>
			<polygon fill="#D1D3D4" points="514.4,796.3 520,716.2 499.3,713.3 			"/>
			<polygon fill="#B7DFE2" points="572.7,387.6 574.6,353.5 528,330.4 			"/>
			<polygon fill="#B7DFE2" points="615,574 621.1,539.5 642.8,556.4 			"/>
			<polygon fill="#B3DBCD" points="642.8,556.4 621.1,616.3 615,574 			"/>
			<polygon fill="#B3DBCD" points="528,330.4 563.6,303.2 553.6,343.1 			"/>
			<polygon fill="#B3DBCD" points="652.8,361.3 677,421.9 654.6,412.9 			"/>
			<polygon fill="#B3DBCD" points="652.8,361.3 617.2,318.1 629.5,357.6 			"/>
			<polygon fill="#B3DBCD" points="643,396.4 632.9,378.8 618.4,385.8 			"/>
			<polygon fill="#C8E3CE" points="632.9,378.8 602.2,368.6 618.4,385.8 			"/>
			<polygon fill="#A7C1B5" points="602.2,368.6 590.2,385.8 618.4,385.8 			"/>
			<polygon fill="#B3DBCD" points="602.2,368.6 572.7,387.6 590.2,385.8 			"/>
			<polygon fill="#94C7D3" points="572.7,387.6 576.2,407.3 590.2,385.8 			"/>
			<g>
				<path fill="#3F3956" d="M642.1,407.9l0.9-11.5l-29.3-12.6c0,0-25.3-12.5-37.5,23.6l2.4,13.6c0,0,3.7-1.7,8.7,1.2
					c4.9,3,24.3,7.8,43.2-19.2L642.1,407.9z"/>
				<g>
					<path fill="#8E688D" d="M600.7,394.8c-8,0-14.8,5.4-16.9,12.7c-0.5-1.6-0.7-3.3-0.7-5c0-9.8,7.9-17.7,17.7-17.7
						c9.8,0,17.7,7.9,17.7,17.7c0,1.7-0.3,3.4-0.7,5C615.5,400.1,608.7,394.8,600.7,394.8z"/>
					<path fill="#AE99C9" d="M600.7,420.1c-8,0-14.8-5.4-16.9-12.7c2.2-7.3,8.9-12.7,16.9-12.7s14.8,5.4,16.9,12.7
						C615.5,414.8,608.7,420.1,600.7,420.1z"/>
				</g>
				<circle fill="#633963" cx="600.7" cy="399.4" r="4.7"/>
			</g>
			<polygon fill="#C8E3CE" points="617.2,318.1 563.6,303.2 558.9,322 			"/>
			<polygon fill="#C8E3CE" points="652.8,361.3 632.9,378.8 629.5,357.6 			"/>
			<polygon fill="#DED9B4" points="652.8,361.3 643,396.4 632.9,378.8 			"/>
			<polygon fill="#A7C1B5" points="652.8,361.3 643,396.4 642.1,407.9 654.6,412.9 			"/>
			<polygon fill="#A7C1B5" points="617.2,318.1 596,339.7 629.5,357.6 			"/>
			<polygon fill="#A7C1B5" points="596,339.7 558.9,322 553.6,343.1 			"/>
			<polygon fill="#94C7D3" points="596,339.7 574.6,353.5 553.6,343.1 			"/>
			<polygon fill="#94C7D3" points="596,339.7 617.2,318.1 558.9,322 			"/>
			<polygon fill="#7FB29E" points="629.5,357.6 602.2,368.6 632.9,378.8 			"/>
			<polygon fill="#7FB29E" points="602.2,368.6 574.6,353.5 572.7,387.6 			"/>
			<polygon fill="#4EDDA6" points="602.2,368.6 596,339.7 574.6,353.5 			"/>
			<polygon fill="#99CAFF" points="602.2,368.6 596,339.7 629.5,357.6 			"/>
			<polygon fill="#A1AFB4" points="603.9,441.7 639.6,470 590.1,460.2 			"/>
			<polygon fill="#B7A5BF" points="574.6,457.1 611.3,503.2 639.6,470 			"/>
			<polygon fill="#8A979B" points="639.6,470 621.1,539.5 611.3,503.2 			"/>
			<polygon fill="#B7BCCD" points="574.6,457.1 615,574 621.1,539.5 			"/>
			<polygon fill="#A1AFB4" points="574.6,457.1 621.1,539.5 611.3,503.2 			"/>
			<polygon fill="#8A979B" points="677,421.9 654.6,495.1 672.4,524.9 			"/>
			<polygon fill="#538196" points="632.9,431.2 639.6,470 603.9,441.7 			"/>
			<polygon fill="#6E877F" points="642.1,407.9 632.9,431.2 677,421.9 			"/>
			<polygon fill="#72A1B2" points="632.9,431.2 639.6,470 677,421.9 			"/>
			<polygon fill="#72A1B2" points="639.6,470 672.4,524.9 621.1,539.5 			"/>
			<polygon fill="#94C7D3" points="621.1,539.5 642.8,556.4 672.4,524.9 			"/>
			<polygon fill="#A1AFB4" points="672.4,524.9 621.1,616.3 642.8,556.4 			"/>
			<polygon fill="#A1AFB4" points="677,421.9 639.6,470 654.6,495.1 			"/>
			<polygon fill="#528466" points="528,330.4 499.3,303.8 499.3,334.2 			"/>
			<polygon fill="#6E877F" points="528,330.4 499.3,368.6 499.3,334.2 			"/>
			<polygon fill="#429686" points="528,330.4 539.5,389.4 499.3,368.6 			"/>
			<polygon fill="#429686" points="499.3,303.8 528,244.9 499.3,272.5 			"/>
			<polygon fill="#6BAA85" points="528,244.9 528,330.4 499.3,303.8 			"/>
			<polygon fill="#6BAA85" points="528,244.9 518.8,202 499.3,272.5 			"/>
			<polygon fill="#6BAA85" points="539.5,389.4 572.7,387.6 554.5,420.9 			"/>
			<polygon fill="#6BAA85" points="617.2,318.1 661,332.3 652.8,361.3 			"/>
			<polygon fill="#6BAA85" points="652.8,361.3 695,395.6 677,421.9 			"/>
			<polygon fill="#528466" points="499.3,368.6 499.3,426.1 517.7,378.1 			"/>
			<polygon fill="#7FB29E" points="528,244.9 563.6,303.2 528,330.4 			"/>
			<polygon fill="#7FB29E" points="518.8,202 499.3,218.5 499.3,272.5 			"/>
			<polygon fill="#7FB29E" points="617.2,318.1 630.5,260.1 661,332.3 			"/>
			<polygon fill="#4EDDA6" points="563.6,303.2 569.7,263.2 630.5,260.1 			"/>
			<polygon fill="#A7C1B5" points="563.6,303.2 569.7,263.2 552.6,234.2 			"/>
			<polygon fill="#A7C1B5" points="630.5,260.1 563.6,303.2 617.2,318.1 			"/>
			<polygon fill="#A7C1B5" points="572.7,387.6 539.5,389.4 528,330.4 			"/>
			<polygon fill="#7FB29E" points="539.5,389.4 499.3,426.1 517.7,378.1 			"/>
			<polygon fill="#7FB29E" points="539.5,389.4 542.4,423.4 554.5,420.9 			"/>
			<polygon fill="#7FB29E" points="542.4,423.4 553.4,479.3 566.8,448.2 			"/>
			<polygon fill="#6BAA85" points="578.6,420.9 553.4,479.3 574.6,457.1 			"/>
			<polygon fill="#72A1B2" points="574.6,457.1 580.2,516.4 553.4,479.3 			"/>
			<polygon fill="#72A1B2" points="542.4,423.4 566.8,448.2 554.5,420.9 			"/>
			<polygon fill="#4EDDA6" points="563.6,303.2 552.6,234.2 528,244.9 			"/>
			<polygon fill="#538196" points="499.3,579.4 539.1,559 499.3,543.7 			"/>
			<polygon fill="#60668C" points="499.3,543.7 525,514.4 499.3,506.6 			"/>
			<polygon fill="#72A1B2" points="525,514.4 539.1,559 499.3,543.7 			"/>
			<polygon fill="#72A1B2" points="539.1,559 531.9,587.4 499.3,579.4 			"/>
			<polygon fill="#72A1B2" points="525,514.4 499.3,470 499.3,506.6 			"/>
			<polygon fill="#A1AFB4" points="574.6,457.1 580.2,516.4 615,574 			"/>
			<polygon fill="#94C7D3" points="580.2,516.4 583.8,567.1 615,574 			"/>
			<polygon fill="#55CFF9" points="583.8,567.1 595,602.1 615,574 			"/>
			<polygon fill="#55CFF9" points="583.8,567.1 553.4,479.3 580.2,516.4 			"/>
			<polygon fill="#55CFF9" points="499.3,470 535.3,465.2 525,514.4 			"/>
			<polygon fill="#55CFF9" points="539.1,559 531.9,587.4 569.1,567.1 			"/>
			<polygon fill="#99CAFF" points="525,514.4 553.4,479.3 535.3,465.2 			"/>
			<polygon fill="#99CAFF" points="525,514.4 539.1,559 569.1,567.1 			"/>
			<polygon fill="#A7C1B5" points="535.3,465.2 542.4,423.4 553.4,479.3 			"/>
			<polygon fill="#94C7D3" points="525,514.4 583.8,567.1 553.4,479.3 			"/>
			<polygon fill="#94C7D3" points="535.3,465.2 499.3,426.1 499.3,470 			"/>
			<polygon fill="#4EDDA6" points="499.3,426.1 542.4,423.4 535.3,465.2 			"/>
			<polygon fill="#A1AFB4" points="499.3,426.1 539.5,389.4 542.4,423.4 			"/>
			<polygon fill="#B7BCCD" points="569.1,567.1 583.8,567.1 525,514.4 			"/>
			<polygon fill="#633963" points="518.8,202 499.3,143 499.3,218.5 			"/>
			<polygon fill="#633963" points="499.3,143 547.1,108.9 499.3,82.4 			"/>
			<polygon fill="#61235A" points="547.1,108.9 547.1,108.5 522.1,10.2 499.3,82.4 			"/>
			<polygon fill="#61235A" points="518.8,202 499.3,143 547.1,108.9 			"/>
			<polygon fill="#61235A" points="528,244.9 551.5,174.9 552.6,234.2 			"/>
			<polygon fill="#61235A" points="552.6,234.2 609.6,199.3 569.7,263.2 			"/>
			<polygon fill="#62347F" points="518.8,202 551.5,174.9 547.1,108.9 			"/>
			<polygon fill="#62347F" points="569.7,263.2 671.2,195.8 630.5,260.1 			"/>
			<polygon fill="#65477A" points="630.5,260.1 721.6,243.9 766.7,361.3 			"/>
			<polygon fill="#62347F" points="552.6,234.2 551.5,174.9 604.6,117.2 			"/>
			<polygon fill="#8E4989" points="569.7,263.2 671.2,195.8 609.6,199.3 			"/>
			<polygon fill="#8E4989" points="528,244.9 518.8,202 551.5,174.9 			"/>
			<polygon fill="#8E4989" points="604.6,117.2 609.6,199.3 552.6,234.2 			"/>
			<polygon fill="#8E4989" points="630.5,260.1 739.3,185 787.3,232.3 			"/>
			<polygon fill="#8E4989" points="661,332.3 708.9,318.1 652.8,361.3 			"/>
			<polygon fill="#8E4989" points="652.8,361.3 695,395.6 795.8,422.2 			"/>
			<polygon fill="#8E4989" points="677,421.9 795.8,422.2 722.8,483 			"/>
			<polygon fill="#797391" points="708.9,318.1 705.9,383.9 795.8,422.2 			"/>
			<polygon fill="#797391" points="661,332.3 630.5,260.1 708.9,318.1 			"/>
			<polygon fill="#797391" points="677,421.9 672.4,524.9 722.8,483 			"/>
			<polygon fill="#575756" points="672.4,524.9 623.1,655.1 621.1,616.3 			"/>
			<polygon fill="#797391" points="672.4,524.9 774.1,622.8 652.2,578.4 			"/>
			<polygon fill="#6E6491" points="708.9,318.1 652.8,361.3 705.9,383.9 			"/>
			<polygon fill="#6E6491" points="695,395.6 677,421.9 795.8,422.2 			"/>
			<polygon fill="#934AD3" points="609.6,199.3 670.5,136.1 671.2,195.8 			"/>
			<polygon fill="#6E6491" points="739.3,185 786.2,95.1 671.2,195.8 			"/>
			<polygon fill="#8E688D" points="604.6,117.2 670.5,136.1 701.3,22.5 			"/>
			<polygon fill="#877993" points="547.1,108.9 608.8,8.9 602.7,71.9 			"/>
			<polygon fill="#8E688D" points="590.2,39.1 529.4,39.1 547.1,108.9 			"/>
			<polygon fill="#AA9FE2" points="769.1,127.9 836.1,180 866,136 			"/>
			<polygon fill="#877993" points="836.1,180 852.9,305.4 787.3,232.3 			"/>
			<polygon fill="#877993" points="739.3,185 769.1,127.9 836.1,180 			"/>
			<polygon fill="#C8E3CE" points="857.2,429.1 857.2,617.7 900.3,569.5 			"/>
			<polygon fill="#E8ECB1" points="857.2,429.1 804.5,550.6 857.2,536.7 			"/>
			<polygon fill="#C170C1" points="857.2,429.1 672.4,524.9 795.8,422.2 			"/>
			<polygon fill="#8D59B2" points="721.6,243.9 811.9,349.6 766.7,361.3 			"/>
			<polygon fill="#AA9FE2" points="857.2,429.1 708.9,318.1 795.8,422.2 			"/>
			<polygon fill="#D8CAF9" points="857.2,429.1 813.1,452 834.5,481.5 			"/>
			<polygon fill="#C0B6E0" points="857.2,429.1 811.9,349.6 766.7,361.3 			"/>
			<polygon fill="#C0B6E0" points="834.5,481.5 770.1,474.3 813.1,452 			"/>
			<polygon fill="#B3DBCD" points="770.1,474.3 804.5,550.6 834.5,481.5 			"/>
			<polygon fill="#AA9FE2" points="770.1,474.3 672.4,524.9 804.5,550.6 			"/>
			<polygon fill="#A397B2" points="672.4,524.9 774.1,622.8 804.5,550.6 			"/>
			<polygon fill="#AA9FE2" points="852.9,305.4 811.9,349.6 857.2,429.1 			"/>
			<polygon fill="#6E6491" points="852.9,305.4 721.6,243.9 787.3,232.3 			"/>
			<polygon fill="#AA89CE" points="852.9,305.4 721.6,243.9 811.9,349.6 			"/>
			<polygon fill="#AA89CE" points="852.9,305.4 911.9,435.8 857.2,429.1 			"/>
			<polygon fill="#AA89CE" points="836.1,180 897.5,222.6 843.4,234.2 			"/>
			<polygon fill="#AA9FE2" points="897.5,222.6 852.9,305.4 843.4,234.2 			"/>
			<polygon fill="#AA89CE" points="786.2,95.1 670.5,136.1 671.2,195.8 			"/>
			<polygon fill="#AA89CE" points="602.7,71.9 551.5,174.9 547.1,108.9 			"/>
			<polygon fill="#934AD3" points="602.7,71.9 604.6,117.2 551.5,174.9 			"/>
			<polygon fill="#934AD3" points="739.3,185 787.3,232.3 836.1,180 			"/>
			<polygon fill="#806AAC" points="670.5,136.1 738.5,63.2 688.9,68.2 			"/>
			<polygon fill="#877993" points="602.7,71.9 701.3,22.5 604.6,117.2 			"/>
			<polygon fill="#877993" points="609.6,199.3 670.5,136.1 604.6,117.2 			"/>
			<polygon fill="#877993" points="671.2,195.8 630.5,260.1 739.3,185 			"/>
			<polygon fill="#E8ECB1" points="804.5,550.6 857.2,617.7 815.6,673 			"/>
			<polygon fill="#E8ECB1" points="861.5,789.3 770.5,727 815.6,673 			"/>
			<polygon fill="#DED9B4" points="804.5,550.6 774.1,622.8 815.6,673 			"/>
			<polygon fill="#DED9B4" points="815.6,673 857.2,617.7 888.8,727.7 			"/>
			<polygon fill="#DED9B4" points="804.5,550.6 857.2,536.7 857.2,617.7 			"/>
			<polygon fill="#C8E3CE" points="774.1,622.8 770.5,727 815.6,673 			"/>
			<polygon fill="#DED9B4" points="774.1,622.8 744.6,689 770.5,727 			"/>
			<polygon fill="#CFCAE5" points="774.1,622.8 652.2,578.4 744.6,689 			"/>
			<polygon fill="#CFCAE5" points="900.3,569.5 922.3,698.8 857.2,617.7 			"/>
			<polygon fill="#CFCAE5" points="900.3,569.5 932.4,575.7 880.4,504.8 			"/>
			<polygon fill="#C0B6E0" points="857.2,429.1 917.9,502.7 880.4,504.8 			"/>
			<polygon fill="#677C6E" points="652.2,578.4 623.1,655.1 744.6,689 			"/>
			<polygon fill="#436A7B" points="623.1,655.1 706.3,744.1 744.6,689 			"/>
			<polygon fill="#436A7B" points="612.8,687.7 618.6,768.1 599.2,715 			"/>
			<path fill="#436A7B" d="M599.2,715"/>
			<polygon fill="#2B4854" points="618.6,768.1 579.4,736.6 579.4,720.2 599.2,715 			"/>
			<polygon fill="#2B4854" points="623.1,655.1 612.8,687.7 706.3,744.1 			"/>
			<polygon fill="#727271" points="559.9,813.9 552,868.2 529.9,822.4 			"/>
			<polygon fill="#575756" points="529.9,822.4 538.3,791.2 559.9,813.9 			"/>
			<polygon fill="#575756" points="559.9,813.9 552,868.2 626.8,855.2 			"/>
			<polygon fill="#575756" points="618.6,768.1 612.8,687.7 706.3,744.1 			"/>
			<polygon fill="#575756" points="744.6,689 706.3,744.1 770.5,727 			"/>
			<polygon fill="#727271" points="770.5,727 730.4,779.9 706.3,744.1 			"/>
			<polygon fill="#2B4854" points="626.8,855.2 653.3,969.5 552,868.2 			"/>
			<polygon fill="#436A7B" points="552,868.2 499.3,972.7 499.3,867.3 			"/>
			<polygon fill="#2B4854" points="552,868.2 552,990.7 516.2,939.2 			"/>
			<polygon fill="#60668C" points="706.3,744.1 656.1,812.5 618.6,768.1 			"/>
			<polygon fill="#60668C" points="529.9,822.4 499.3,817.5 514.4,796.3 			"/>
			<polygon fill="#60668C" points="529.9,822.4 499.3,867.3 552,868.2 			"/>
			<polygon fill="#60668C" points="552,868.2 597.7,913.8 552,990.7 			"/>
			<polygon fill="#528466" points="529.9,822.4 499.3,817.5 499.3,867.3 			"/>
			<polygon fill="#528466" points="562.7,775.5 559.9,813.9 593.5,784.9 			"/>
			<polygon fill="#528466" points="579.4,736.6 593.5,784.9 618.6,768.1 			"/>
			<polygon fill="#528466" points="706.3,744.1 708.4,872 656.1,812.5 			"/>
			<polygon fill="#6E877F" points="618.6,768.1 626.8,855.2 593.5,784.9 			"/>
			<polygon fill="#6E877F" points="770.5,727 807.7,827.6 730.4,779.9 			"/>
			<polygon fill="#6BAA85" points="593.5,784.9 559.9,813.9 626.8,855.2 			"/>
			<polygon fill="#6BAA85" points="618.6,768.1 626.8,855.2 656.1,812.5 			"/>
			<polygon fill="#6BAA85" points="706.3,744.1 756.4,914.5 708.4,872 			"/>
			<polygon fill="#6BAA85" points="708.4,872 653.3,969.5 626.8,855.2 			"/>
			<polygon fill="#8FC1AD" points="706.3,744.1 771.6,841 756.4,914.5 			"/>
			<polygon fill="#8FC1AD" points="656.1,812.5 626.8,855.2 708.4,872 			"/>
			<polygon fill="#8FC1AD" points="770.5,727 813.8,756.6 807.7,827.6 			"/>
			<polygon fill="#8FC1AD" points="708.4,872 691.2,973 669.3,941.2 			"/>
			<polygon fill="#72A1B2" points="595,602.1 615,574 621.1,616.3 			"/>
		</g>
	</g>
</g>
</svg>
